<?xml version="1.0" encoding="UTF-8"?>
<svg version="1.1" xmlns="http://www.w3.org/2000/svg" width="2000" height="2000">
<path d="M0 0 C89.23484794 -2.16940473 168.98487542 39.15878283 237 94 C237.94101562 94.75796875 238.88203125 95.5159375 239.8515625 96.296875 C249.68735806 104.29023047 259.37838734 112.44726821 268.7578125 120.97265625 C270.71208424 122.73967199 272.69059737 124.46913529 274.6875 126.1875 C288.04428981 137.87926771 300.58781217 150.42728589 313.11865234 162.98828125 C315.53655613 165.41193828 317.95900349 167.83099695 320.38275146 170.24880791 C322.73677878 172.59832755 325.08696279 174.9516762 327.4375 177.3046875 C328.2948877 178.16005096 329.15227539 179.01541443 330.03564453 179.896698 C334.35274909 184.2305625 338.53204133 188.62526535 342.51272583 193.2711792 C344.89422183 196.03945146 347.38720638 198.70253764 349.875 201.375 C350.92096527 202.50484524 351.96653473 203.63505701 353.01171875 204.765625 C353.51880371 205.31412109 354.02588867 205.86261719 354.54833984 206.42773438 C360.50681829 212.88124955 366.22543315 219.45227153 371.75 226.28125 C373.93501569 228.92147729 376.19171391 231.4672972 378.5 234 C382.72550081 238.64732361 386.70187411 243.45987824 390.65136719 248.34228516 C392.7569668 250.93044978 394.88584952 253.49928024 397.01171875 256.07080078 C404.09646453 264.64434211 411.0890563 273.28589154 418 282 C418.45971191 282.57814453 418.91942383 283.15628906 419.39306641 283.75195312 C425.17352356 291.02725003 430.82733018 298.38634243 436.38330078 305.83447266 C440.00808457 310.69114834 443.6815054 315.50794511 447.375 320.3125 C458.88620765 335.31676377 469.97039635 350.6398218 481 366 C481.4429541 366.61681641 481.8859082 367.23363281 482.34228516 367.86914062 C498.22522565 390.00640844 514.0353975 412.22934282 529 435 C525.03313324 436.98343338 519.78607347 434.62909351 515.625 433.6875 C514.43543701 433.41969727 513.24587402 433.15189453 512.02026367 432.87597656 C466.21452812 422.30655016 421.11771622 407.7117545 378 389 C377.14825195 388.63197266 376.29650391 388.26394531 375.41894531 387.88476562 C292.41850566 351.83701133 292.41850566 351.83701133 283 333 C284.1746582 332.9498877 285.34931641 332.89977539 286.55957031 332.84814453 C291.09728769 332.65387148 295.6348943 332.45711729 300.17245483 332.25921631 C302.22731235 332.16960092 304.28218304 332.08028707 306.33706665 331.99127197 C316.83167527 331.53486381 327.32385904 331.07053391 337.80859375 330.421875 C338.55945251 330.37547882 339.31031128 330.32908264 340.08392334 330.28128052 C341.19021088 330.21286453 341.19021088 330.21286453 342.31884766 330.14306641 C355.67456321 329.31866704 368.99236225 328.79486401 382.375 328.75 C383.06870697 328.74482361 383.76241394 328.73964722 384.47714233 328.73431396 C393.86349194 328.67835328 402.7545854 329.42287274 412 331 C384.32519276 311.93032814 352.79640971 306.82385468 320.16384888 301.61680603 C278.41783008 294.95479336 278.41783008 294.95479336 261 290 C260.03739258 289.74428223 259.07478516 289.48856445 258.08300781 289.22509766 C255.16608413 288.4430793 252.27069355 287.60696604 249.375 286.75 C248.52647461 286.52304443 247.67794922 286.29608887 246.80371094 286.06225586 C239.58629462 283.76560542 236.74221541 279.35729788 233 273 C232.4627832 272.1229541 231.92556641 271.2459082 231.37207031 270.34228516 C229.69062053 267.56057138 228.05860098 264.75478058 226.4375 261.9375 C225.83599121 260.89803223 225.23448242 259.85856445 224.61474609 258.78759766 C214.30873867 240.92438781 204.35739053 222.89008038 194.68676758 204.67700195 C189.98208309 195.81890602 185.20403539 187.00860026 180.27783203 178.27148438 C178.84331168 175.7214696 177.41985195 173.16541334 175.99609375 170.609375 C169.66864997 159.29058039 163.13158135 148.13041005 156.31738281 137.09692383 C155.75245117 136.18064209 155.18751953 135.26436035 154.60546875 134.3203125 C154.10168701 133.50836426 153.59790527 132.69641602 153.07885742 131.85986328 C152 130 152 130 152 129 C183.38717814 124.51611741 215.45799348 131.8460356 245 142 C226.85595268 128.24564155 205.89590627 122.28272932 184.08984375 116.95703125 C183.39508375 116.78727154 182.70032375 116.61751183 181.98451042 116.44260788 C175.49157899 114.86029573 168.99295107 113.30193231 162.49194336 111.75317383 C158.89214781 110.89467189 155.29590761 110.02241354 151.70144844 109.14185143 C150.34682262 108.81308211 148.99086894 108.48973159 147.63358879 108.17209816 C145.75127502 107.73156108 143.87342775 107.27207007 141.99584961 106.81176758 C140.93111923 106.55752518 139.86638885 106.30328278 138.76939392 106.04133606 C133.59983789 104.09750096 130.98280842 99.77429713 127.8125 95.4375 C121.34291343 86.69227396 114.44676796 78.37565032 107.1171875 70.3359375 C105.20919797 68.23081252 103.34952931 66.09386366 101.5 63.9375 C94.83057699 56.3196728 87.61882491 49.55689475 79.65625 43.30566406 C78.48439907 42.38186413 77.31826797 41.45078686 76.15625 40.51464844 C56.01566137 24.30027575 33.47393989 11.89183657 8.7578125 4.19140625 C5.76589312 3.24282474 2.88930271 2.21803938 0 1 C0 0.67 0 0.34 0 0 Z " fill="#1E4238" transform="translate(693,535)"/>
<path d="M0 0 C1.15461888 -0.00424107 1.15461888 -0.00424107 2.3325634 -0.00856781 C6.41661773 -0.0233958 10.50063832 -0.03272476 14.5847168 -0.03710938 C17.87389414 -0.04146142 21.16280435 -0.05524974 24.4519043 -0.078125 C52.34282931 -0.26788349 79.92245738 0.96405601 107.49609375 5.515625 C109.44914429 5.82983398 109.44914429 5.82983398 111.44165039 6.15039062 C122.88205148 8.03408954 134.12309734 10.54845303 145.32324219 13.53271484 C147.79271879 14.15211407 150.24928493 14.64589009 152.75390625 15.09765625 C165.03756276 17.55165937 171.26377228 24.61393699 179.12353516 34.00048828 C181.41924974 36.7008712 183.83279444 39.26818417 186.27587891 41.8347168 C192.17043358 48.03398262 197.75382659 54.44027356 202.99609375 61.203125 C203.81182861 62.25064941 203.81182861 62.25064941 204.64404297 63.31933594 C220.3873482 83.63628077 234.74991739 105.08872536 243.99609375 129.203125 C238.22228634 95.49269664 222.85471028 66.62765478 205.99609375 37.203125 C229.97026764 41.54584136 257.74542631 68.31098385 273.99609375 85.203125 C276.54505043 87.77311268 279.11312872 90.31563283 281.72265625 92.82421875 C288.71770725 99.58481892 294.82618995 106.7230497 300.68457031 114.48144531 C301.94241425 116.13265816 303.22471411 117.76050063 304.51953125 119.3828125 C334.50738812 157.31697844 373.20814374 220.31364822 373.18359375 270.328125 C373.1846814 271.32891083 373.1846814 271.32891083 373.18579102 272.34991455 C373.18446294 283.4005273 372.54040494 294.25506172 370.99609375 305.203125 C374.26425902 296.26924699 377.2842565 287.32338214 379.99609375 278.203125 C382.89552389 281.10255514 383.43879232 284.6465988 384.5 288.50390625 C384.73900528 289.35411346 384.97801056 290.20432068 385.22425842 291.08029175 C386.01060113 293.88985234 386.7855747 296.70237114 387.55859375 299.515625 C387.96050934 300.96976303 387.96050934 300.96976303 388.37054443 302.45327759 C395.97463903 329.99881467 402.5746404 357.67258983 408.43359375 385.640625 C408.64937073 386.66723236 408.86514771 387.69383972 409.08746338 388.7515564 C411.41410977 399.86461588 413.61901254 410.92561853 414.99609375 422.203125 C411.82948874 419.14032308 409.78608137 416.33910213 407.68359375 412.453125 C381.05991657 364.64191829 348.02071666 319.16600248 313.37988281 276.8984375 C311.58731693 274.70232291 309.82123393 272.48580157 308.05859375 270.265625 C295.27795608 254.26297784 282.17098067 238.54312867 268.10351562 223.65185547 C264.97811807 220.34310878 261.91293481 216.99262705 258.88989258 213.58984375 C254.15506166 208.323687 249.22357857 203.28581982 244.2109375 198.28515625 C243.31041153 197.38367355 242.40988556 196.48219086 241.48207092 195.5533905 C239.59334771 193.66399185 237.70367325 191.77561084 235.81225586 189.88891602 C233.40977429 187.49214711 231.01183494 185.09089176 228.61519527 182.68828297 C226.29538798 180.3639602 223.97173836 178.04348619 221.6484375 175.72265625 C220.79926254 174.87145706 219.95008759 174.02025787 219.07518005 173.14326477 C214.73200952 168.81697055 210.32505675 164.63235754 205.66996765 160.64231873 C203.34427472 158.64269219 201.11407775 156.54465349 198.87109375 154.453125 C194.1913344 150.18058228 189.32889979 146.24438421 184.31640625 142.37109375 C180.4011747 139.33721303 176.61509717 136.19474581 172.87109375 132.953125 C164.27564392 125.56935676 155.11520157 118.91891239 145.99609375 112.203125 C145.24166992 111.64334961 144.48724609 111.08357422 143.70996094 110.50683594 C62.50280515 50.29840969 -28.75864664 15.38425591 -130.00390625 13.203125 C-130.00390625 12.543125 -130.00390625 11.883125 -130.00390625 11.203125 C-105.77839215 7.88027411 -81.56752455 4.87137795 -57.19140625 2.890625 C-55.70954834 2.76947327 -55.70954834 2.76947327 -54.19775391 2.64587402 C-51.33530701 2.41418741 -48.47251409 2.18780429 -45.609375 1.96484375 C-44.39745735 1.86990883 -44.39745735 1.86990883 -43.16105652 1.77305603 C-28.77470517 0.69152282 -14.42649301 0.03704012 0 0 Z " fill="#B1846C" transform="translate(829.00390625,510.796875)"/>
<path d="M0 0 C0.99 0.495 0.99 0.495 2 1 C0.76636719 2.50626953 0.76636719 2.50626953 -0.4921875 4.04296875 C-6.62025619 11.54390197 -12.6635659 19.08816889 -18.5390625 26.7890625 C-21.15886502 30.21950496 -23.82741274 33.61061616 -26.5 37 C-34.52484052 47.19226711 -42.48477759 57.42280244 -50 68 C-50.5161084 68.72638672 -51.0322168 69.45277344 -51.56396484 70.20117188 C-65.53893479 89.75565683 -65.53893479 89.75565683 -77.5 110.5625 C-77.8388623 111.22991211 -78.17772461 111.89732422 -78.52685547 112.58496094 C-80.21734906 116.02904585 -81.47349813 119.19017395 -82 123 C-63.41139531 127.69107737 -42.87520191 122.57499355 -24.43912888 119.19873047 C-20.82440596 118.54223787 -17.20536339 117.91066825 -13.58618164 117.27929688 C-12.86665408 117.15374861 -12.14712652 117.02820034 -11.4057951 116.89884758 C-9.96243955 116.64712908 -8.51906216 116.39553574 -7.07566261 116.14406967 C-4.94474105 115.77215856 -2.81421483 115.39805164 -0.6837616 115.02346802 C58.4148809 104.65324916 120.27371226 98.90930076 180 107 C180.70439209 107.09474609 181.40878418 107.18949219 182.13452148 107.28710938 C226.34438047 113.30433026 269.56866636 124.35761822 312 138 C312.63713928 138.20471924 313.27427856 138.40943848 313.9307251 138.62036133 C330.18498883 143.8507768 346.25516506 149.36864599 362 156 C358.7605903 157.07980323 358.00788672 156.95614529 354.84716797 156.09472656 C354.00256516 155.86946793 353.15796234 155.64420929 352.2877655 155.41212463 C351.36522476 155.15752975 350.44268402 154.90293488 349.4921875 154.640625 C347.47817603 154.10155512 345.46409391 153.56274912 343.44995117 153.02416992 C342.38054291 152.73512787 341.31113464 152.44608582 340.20932007 152.14828491 C247.06345505 127.05425571 156.20323408 111.78833824 -73.34692383 150.8347168 C-74.42755096 151.11106964 -75.5081781 151.38742249 -76.62155151 151.67214966 C-78.65428538 152.19293534 -80.68594935 152.7179212 -82.71633911 153.24777222 C-83.62004242 153.47933014 -84.52374573 153.71088806 -85.45483398 153.94946289 C-86.63262672 154.25515953 -86.63262672 154.25515953 -87.83421326 154.56703186 C-90 155 -90 155 -94 155 C-89.69745338 160.07728171 -85.32102262 165.09122014 -80.45703125 169.640625 C-78 172 -78 172 -75.63671875 174.921875 C-72.69640756 178.00593474 -70.27597124 180.38134462 -66 181 C-58.37888895 179.66303938 -51.32918081 175.78160366 -44.38183594 172.52197266 C-39.03558651 170.11592884 -33.54775775 168.19687291 -28 166.3125 C-26.92000732 165.94358643 -25.84001465 165.57467285 -24.72729492 165.19458008 C4.44974895 155.37305781 34.48475054 148.95494564 65 145 C66.10875488 144.84901855 67.21750977 144.69803711 68.35986328 144.54248047 C108.87069126 139.23755922 152.53063303 139.45305898 193 145 C194.10686157 145.14918884 194.10686157 145.14918884 195.23608398 145.3013916 C250.67838062 152.81904025 304.70272684 167.64579362 356 190 C352.05657657 191.31447448 349.7576165 190.04693868 346.0625 188.60546875 C344.61363461 188.06085334 343.16456923 187.51676978 341.71533203 186.97314453 C340.94819885 186.68199768 340.18106567 186.39085083 339.39068604 186.09088135 C260.28056472 156.19711573 174.26719119 144.21993175 -62 182 C-62 182.66 -62 183.32 -62 184 C-52.37815388 189.5236524 -44.17097973 189.53910361 -33.51953125 186.97265625 C-32.52964706 186.74864136 -31.53976288 186.52462646 -30.5198822 186.29382324 C-28.39118756 185.81204412 -26.26385771 185.32420152 -24.13781738 184.83084106 C-18.42558098 183.51098335 -12.69963418 182.25410218 -6.97265625 181 C-5.80342621 180.74376358 -4.63419617 180.48752716 -3.42953491 180.223526 C27.74929313 173.45460677 59.24570817 168.73133348 91.04452515 166.16033936 C92.83362477 166.01364195 94.62160532 165.85345751 96.40942383 165.69189453 C109.80417424 164.60997747 123.25840595 164.75702191 136.6875 164.75 C137.35244854 164.74941086 138.01739708 164.74882172 138.70249557 164.74821472 C160.59836538 164.73453879 182.25526024 165.30787543 204 168 C205.21187988 168.14985352 206.42375977 168.29970703 207.67236328 168.45410156 C215.48067312 169.45688655 223.24260565 170.662023 231 172 C232.04704102 172.17756836 233.09408203 172.35513672 234.17285156 172.53808594 C277.89714451 180.0739779 320.07090695 193.67534278 360 213 C356.47309959 214.17563347 355.82091864 213.80096944 352.46875 212.48046875 C351.53168213 212.12259277 350.59461426 211.7647168 349.62915039 211.39599609 C348.59653076 210.99719238 347.56391113 210.59838867 346.5 210.1875 C306.47612737 195.32981874 264.51037989 186.83405157 222.125 182.3125 C221.00955811 182.19293945 219.89411621 182.07337891 218.74487305 181.95019531 C200.79981758 180.15191076 182.8352283 179.79304071 164.8125 179.8125 C163.24503525 179.81340637 163.24503525 179.81340637 161.64590454 179.81433105 C92.24714628 179.92249764 21.64840368 190.23770023 -44.2109375 212.46875 C-47.78989087 213.66219489 -51.23960583 214.54724351 -55 215 C-60.5637875 208.43657219 -65.64963869 201.75649754 -70.4921875 194.64453125 C-78.99392273 182.20271482 -88.0686812 170.13513856 -97 158 C-105.3981745 158.71779269 -113.19246452 161.2455706 -121.24023438 163.6484375 C-122.32240234 163.96296875 -123.40457031 164.2775 -124.51953125 164.6015625 C-125.50026611 164.89369629 -126.48100098 165.18583008 -127.49145508 165.48681641 C-130 166 -130 166 -133 165 C-129.00962092 156.47509925 -124.43095135 148.67765906 -119 141 C-118.52111328 140.32130859 -118.04222656 139.64261719 -117.54882812 138.94335938 C-107.79620904 125.17280734 -97.57129156 111.90711049 -86.61328125 99.078125 C-84.22117731 96.2729268 -81.88544149 93.42536843 -79.5625 90.5625 C-75.59274865 85.68212468 -71.50825551 80.90982175 -67.39331055 76.15209961 C-63.6230674 71.77647807 -60.02498164 67.29016579 -56.5234375 62.6953125 C-56.02070312 62.13585937 -55.51796875 61.57640625 -55 61 C-54.34 61 -53.68 61 -53 61 C-52.76667969 60.44828125 -52.53335938 59.8965625 -52.29296875 59.328125 C-50.65980716 56.38744733 -48.60660793 54.20922749 -46.3125 51.75 C-43.3348986 48.53350795 -40.36916153 45.31425819 -37.5 42 C-34.71185902 38.79100756 -31.86471815 35.64083556 -29 32.5 C-21.57603146 24.58998568 -21.57603146 24.58998568 -15 16 C-14.34 16 -13.68 16 -13 16 C-12.75121094 15.4225 -12.50242187 14.845 -12.24609375 14.25 C-10.82396951 11.68215183 -9.18376491 10.02250956 -7.0625 8 C-4.42391364 5.4748482 -2.12025863 2.97766729 0 0 Z " fill="#B1856C" transform="translate(872,845)"/>
<path d="M0 0 C1.70458374 0.01135986 1.70458374 0.01135986 3.44360352 0.02294922 C21.86319322 0.38285563 36.83021123 6.6152955 50.1875 19.4375 C63.5732968 34.12766358 70.47857634 54.70579156 71.1875 74.4375 C71.2390625 75.56671875 71.290625 76.6959375 71.34375 77.859375 C71.71117581 93.10754613 70.22442828 109.31026647 64.1875 123.4375 C63.76726562 124.4275 63.34703125 125.4175 62.9140625 126.4375 C55.53268644 142.42368461 43.69664565 152.65344211 28.1875 160.4375 C29.44240234 160.8396875 29.44240234 160.8396875 30.72265625 161.25 C37.49328007 163.52936838 43.74448911 166.10021037 50 169.5625 C63.04538916 176.70793948 73.44700994 177.43621052 88.1875 175.4375 C90.80729909 180.57230622 91.90465797 183.67997035 90.1875 189.4375 C86.34835858 196.48033874 81.5501299 199.72224706 74.0625 202.1171875 C61.26087253 205.45475466 50.03745123 203.45656188 38.77783203 196.89794922 C33.51738365 193.73942309 28.42368102 190.32152904 23.42529297 186.76367188 C15.55056792 181.30037715 7.57511733 180.69227445 -1.8125 181.4375 C-6.09055115 182.32399456 -10.07441891 183.54956727 -13.96875 185.5390625 C-15.8125 186.4375 -15.8125 186.4375 -17.75 186.4375 C-21.00059486 184.86145401 -22.62908728 182.28806661 -24.8125 179.4375 C-22.33168159 172.20177965 -17.96436314 168.57817711 -11.8125 164.4375 C-12.81667969 164.22996094 -13.82085938 164.02242187 -14.85546875 163.80859375 C-32.40308334 159.95515226 -46.70180358 151.9233374 -56.6875 136.5625 C-71.49386562 112.56775267 -74.30160548 81.62847135 -67.92578125 54.390625 C-62.7936433 35.48488361 -53.07041457 18.59991656 -35.8125 8.4375 C-24.38655839 2.2708521 -12.92082961 -0.12141282 0 0 Z M-15.125 24.4375 C-25.10033465 37.70976728 -26.92649965 56.27371896 -27.015625 72.3984375 C-27.02132507 73.22848297 -27.02702515 74.05852844 -27.03289795 74.91372681 C-27.04228254 76.66333775 -27.04885564 78.41296584 -27.05273438 80.16259766 C-27.06234888 82.77149481 -27.09339723 85.37957121 -27.125 87.98828125 C-27.23619145 105.72378954 -26.72464445 128.6994188 -13.8125 142.4375 C-8.51596856 146.1757131 -3.36576202 148.40835363 3.1875 147.4375 C9.72574876 145.96574281 14.1805903 142.78657749 18.1875 137.4375 C33.2203421 111.93462966 31.222277 68.84585559 24.4375 41 C22.03321351 33.09892468 18.55472643 24.82275383 11.1875 20.4375 C1.94295778 16.11709149 -7.70483431 16.57520009 -15.125 24.4375 Z " fill="#1E4238" transform="translate(611.8125,1211.5625)"/>
<path d="M0 0 C1.74939277 -0.0123918 3.4987585 -0.02977408 5.24804688 -0.05255127 C24.45269173 -0.2871997 43.32114524 1.63041208 58.00195312 15.16085815 C68.34334988 25.69519142 70.16371569 38.86542778 70.15698242 52.97702026 C69.99501976 65.11489862 66.29894606 77.35799652 57.87695312 86.4460144 C42.83030897 100.08949928 25.21860047 104.64508946 5.28320312 104.35617065 C4.08824219 104.34714722 2.89328125 104.33812378 1.66210938 104.3288269 C-1.25607522 104.30548143 -4.17382464 104.27273721 -7.09179688 104.23117065 C-6.98064553 108.04420402 -6.85032788 111.85636059 -6.71679688 115.66867065 C-6.68585938 116.737948 -6.65492187 117.80722534 -6.62304688 118.90890503 C-6.4081914 130.18195413 -6.4081914 130.18195413 -1.90429688 140.16867065 C3.98863712 144.49015558 10.83989499 144.69073663 17.90820312 145.23117065 C17.82016186 146.79466216 17.71197167 148.35702455 17.59570312 149.91867065 C17.53769531 150.78878784 17.4796875 151.65890503 17.41992188 152.5553894 C16.79728038 155.81118651 15.97496195 157.62527047 13.90820312 160.23117065 C10.94812012 160.86608887 10.94812012 160.86608887 7.28125 160.87814331 C6.61263443 160.88690491 5.94401886 160.8956665 5.25514221 160.9046936 C3.04508558 160.92670029 0.83703003 160.91213367 -1.37304688 160.89523315 C-2.90857325 160.89860101 -4.44409702 160.90345337 -5.97961426 160.909729 C-9.19776795 160.91710193 -12.41522775 160.90638247 -15.63330078 160.88302612 C-19.75989253 160.8545367 -23.88485861 160.87093862 -28.01139069 160.90088844 C-31.18219264 160.91895092 -34.35260871 160.91320854 -37.52342224 160.90024948 C-39.04487805 160.89691249 -40.56636883 160.90101295 -42.08778381 160.91264725 C-44.21441498 160.92534047 -46.33840926 160.90600829 -48.46484375 160.87814331 C-49.67491089 160.87416534 -50.88497803 160.87018738 -52.13171387 160.86608887 C-55.09179688 160.23117065 -55.09179688 160.23117065 -56.97399902 157.85797119 C-58.14942901 155.0957364 -58.5802021 152.90509222 -58.77929688 149.91867065 C-58.84503906 149.03566284 -58.91078125 148.15265503 -58.97851562 147.2428894 C-59.01589844 146.57902222 -59.05328125 145.91515503 -59.09179688 145.23117065 C-58.48851562 145.1332019 -57.88523437 145.03523315 -57.26367188 144.93429565 C-56.06484375 144.70999878 -56.06484375 144.70999878 -54.84179688 144.48117065 C-53.6584375 144.27234253 -53.6584375 144.27234253 -52.45117188 144.05929565 C-49.20646971 142.92042668 -48.12325644 142.07193986 -46.09179688 139.23117065 C-45.46976767 135.56466636 -45.53555351 131.91930852 -45.55834961 128.20797729 C-45.54973404 127.08401047 -45.54111847 125.96004364 -45.53224182 124.80201721 C-45.50951374 121.08155376 -45.51633395 117.36183938 -45.52539062 113.6413269 C-45.52015795 111.05827103 -45.51388279 108.47521707 -45.50660706 105.89216614 C-45.49619001 100.47585053 -45.50045441 95.05982174 -45.51538086 89.64352417 C-45.53230037 83.38692012 -45.51647063 77.13101385 -45.48415798 70.87448603 C-45.4542277 64.85053905 -45.45228027 58.82694701 -45.46165657 52.80291557 C-45.46247761 50.24203013 -45.45558516 47.68113032 -45.44088554 45.12028694 C-45.42349099 41.540925 -45.43794258 37.96305989 -45.46069336 34.38375854 C-45.44315506 32.79312088 -45.44315506 32.79312088 -45.42526245 31.17034912 C-45.49256031 25.17684358 -45.49256031 25.17684358 -48.49134827 20.07832336 C-51.04206602 18.26649552 -52.33055812 17.57496246 -55.40429688 17.41867065 C-56.62117188 17.35679565 -57.83804687 17.29492065 -59.09179688 17.23117065 C-58.33407716 5.47345094 -58.33407716 5.47345094 -54.09179688 1.23117065 C-51.99116385 1.06998157 -49.88512299 0.9790871 -47.77929688 0.9147644 C-47.115047 0.89380203 -46.45079712 0.87283966 -45.76641846 0.85124207 C-43.54167735 0.78386775 -41.31683683 0.72528236 -39.09179688 0.66867065 C-37.94414856 0.63839783 -37.94414856 0.63839783 -36.77331543 0.60751343 C-24.51787065 0.29148496 -12.25932866 0.07520806 0 0 Z M-7.09179688 19.23117065 C-7.09179688 41.01117065 -7.09179688 62.79117065 -7.09179688 85.23117065 C8.95893183 85.58492153 8.95893183 85.58492153 21.78320312 78.16867065 C28.85179365 70.41656076 30.27324719 59.15306147 30.11914062 49.04367065 C29.29497323 38.05477202 26.35938404 30.40979253 18.40820312 22.85617065 C10.04528093 17.42027123 3.46968558 19.23117065 -7.09179688 19.23117065 Z " fill="#1E4238" transform="translate(1143.091796875,1212.7688293457031)"/>
<path d="M0 0 C0.97517578 -0.00773437 1.95035156 -0.01546875 2.95507812 -0.0234375 C3.89416016 -0.02085938 4.83324219 -0.01828125 5.80078125 -0.015625 C7.06595581 -0.01224121 7.06595581 -0.01224121 8.35668945 -0.00878906 C11.00268489 0.28499487 12.51396557 0.70201653 14.6875 2.25 C17.01694471 6.61078746 16.98062389 10.89976667 16.97460938 15.72460938 C16.98144241 16.56586868 16.98827545 17.40712799 16.99531555 18.27388 C17.00887446 20.09518271 17.0179464 21.91652317 17.02302551 23.73786926 C17.03132963 26.62140087 17.05184803 29.50461807 17.07556152 32.38806152 C17.13191417 39.54804863 17.16716754 46.70811217 17.20318604 53.8682251 C17.23444642 59.92239927 17.27365192 65.9764208 17.32344055 72.0304718 C17.34348987 74.86941584 17.35182421 77.70824119 17.35974121 80.54724121 C17.37271511 82.28996206 17.38623564 84.03267896 17.40039062 85.77539062 C17.39891777 86.9569146 17.39891777 86.9569146 17.39741516 88.16230774 C17.44399288 92.28164338 17.75226359 95.57769435 19.6875 99.25 C22.31294297 101.47152867 23.9587547 101.24547909 27.4375 101.1875 C32.18098858 100.4502162 35.98679642 98.25573577 39.6875 95.25 C42.09225699 91.64286451 41.94056416 90.00460652 41.94628906 85.71484375 C41.9497937 85.05598175 41.95329834 84.39711975 41.95690918 83.71829224 C41.96570887 81.54125419 41.95988374 79.36454133 41.953125 77.1875 C41.95447216 75.67439715 41.95641312 74.16129473 41.95892334 72.64819336 C41.96187221 69.47733437 41.95758464 66.30658808 41.94824219 63.13574219 C41.93684772 59.07015513 41.94340847 55.00483213 41.95538712 50.93925476 C41.96261215 47.81488046 41.96031484 44.69056881 41.95513153 41.56619263 C41.95379681 40.06706715 41.95543654 38.56793599 41.96009064 37.06881714 C41.96516651 34.97411007 41.95743112 32.87983139 41.94628906 30.78515625 C41.94469788 29.592854 41.94310669 28.40055176 41.94146729 27.17211914 C41.90663693 24.05808422 41.90663693 24.05808422 39.6875 21.25 C37.27142583 20.45201782 37.27142583 20.45201782 34.5625 20.0625 C32.149375 19.6603125 32.149375 19.6603125 29.6875 19.25 C29.6875 15.29 29.6875 11.33 29.6875 7.25 C41.20123896 2.22101057 50.36878747 -0.10952129 62.9375 -0.125 C63.9996875 -0.14949219 65.061875 -0.17398437 66.15625 -0.19921875 C70.66920099 -0.21622736 73.81226893 -0.20486147 77.859375 1.8984375 C81.61848496 6.73387382 80.83313052 13.32469146 80.8293457 19.20532227 C80.83282013 20.08574188 80.83629456 20.9661615 80.83987427 21.8732605 C80.84720198 23.77696164 80.85256318 25.68067117 80.85616493 27.58438301 C80.863357 30.59814948 80.8790418 33.61175565 80.89750671 36.62547302 C80.94986396 45.19129313 80.99798775 53.75702114 81.01342773 62.32299805 C81.02350214 67.56908355 81.05280472 72.81475881 81.09474754 78.0606823 C81.1070616 80.05772743 81.11217806 82.05483045 81.10994911 84.05191231 C81.10759916 86.84307943 81.12973625 89.63306477 81.1574707 92.42407227 C81.15086929 93.24758682 81.14426788 94.07110138 81.13746643 94.91957092 C81.20165789 98.85256828 81.41042466 100.80793197 83.54875183 104.21958923 C85.83441715 106.38947512 87.69135063 107.33450992 90.6875 108.25 C90.92537606 111.10451268 91.1013339 113.44990309 90.6875 116.25 C85.36338336 122.40600987 76.31554065 123.89578359 68.57421875 124.48828125 C61.56597024 124.65086577 55.48581978 124.53963075 49.6875 120.25 C47.06688782 117.42518427 44.81858329 114.45690347 42.6875 111.25 C42.12095703 111.92095703 42.12095703 111.92095703 41.54296875 112.60546875 C34.78394126 120.02931862 26.27547134 123.78595121 16.3046875 124.48828125 C5.25532134 124.70742317 -4.20921834 123.34895293 -12.5234375 115.4453125 C-19.04928778 107.43760975 -21.43266194 98.90844037 -21.51782227 88.79760742 C-21.52772186 88.0653595 -21.53762146 87.33311157 -21.54782104 86.57867432 C-21.57927625 84.17097143 -21.60412989 81.76324884 -21.62890625 79.35546875 C-21.6494896 77.68109133 -21.67048643 76.00671895 -21.69187927 74.33235168 C-21.74695738 69.93478484 -21.79642929 65.53717221 -21.84472656 61.13952637 C-21.89504599 56.64831488 -21.95067745 52.15716953 -22.00585938 47.66601562 C-22.11326641 38.86073307 -22.21474982 30.05539503 -22.3125 21.25 C-25.6125 20.59 -28.9125 19.93 -32.3125 19.25 C-32.3125 15.29 -32.3125 11.33 -32.3125 7.25 C-21.12897098 2.3652402 -12.20470946 -0.09875692 0 0 Z " fill="#1E4238" transform="translate(726.3125,1250.75)"/>
<path d="M0 0 C9.77793148 7.68266045 14.43212689 17.2599168 16.125 29.375 C16.71427652 38.52327642 17.2618994 48.32375652 12.125 56.375 C8.51029475 58.97681458 6.0284232 59.74668681 1.6003418 59.71557617 C0.51959885 59.71534958 -0.5611441 59.71512299 -1.67463684 59.71488953 C-2.8300145 59.69940567 -3.98539215 59.68392181 -5.17578125 59.66796875 C-6.36729294 59.66372391 -7.55880463 59.65947906 -8.78642273 59.65510559 C-12.58701296 59.63833093 -16.38707038 59.60067959 -20.1875 59.5625 C-22.76626838 59.54745166 -25.34504508 59.53376351 -27.92382812 59.52148438 C-34.2410668 59.48843127 -40.55799533 59.43824319 -46.875 59.375 C-46.58591732 61.43841969 -46.28876823 63.5007102 -45.98828125 65.5625 C-45.82368408 66.71105469 -45.65908691 67.85960937 -45.48950195 69.04296875 C-44.19416976 76.06668499 -41.60443242 81.91877478 -35.875 86.375 C-28.4614399 91.38327171 -19.50032866 91.60569986 -10.875 90.375 C-4.35371268 88.59337614 1.3997778 85.94410561 7.125 82.375 C10.87172719 87.08862453 12.55515511 91.26459146 12.125 97.375 C7.1934224 108.09582088 -3.79833123 112.70455896 -14.1875 116.625 C-31.38891405 120.12359269 -47.94826975 118.35101203 -63.1875 109.4375 C-64.074375 108.756875 -64.96125 108.07625 -65.875 107.375 C-66.41253906 106.99214844 -66.95007812 106.60929687 -67.50390625 106.21484375 C-79.2594054 97.19440481 -84.49568399 82.97906983 -86.55859375 68.76171875 C-88.52567895 47.70662158 -85.55692035 27.24936843 -71.875 10.375 C-54.63933136 -9.73328009 -22.295126 -14.88350303 0 0 Z M-39.875 12.375 C-44.9094547 19.71581484 -46.99816376 27.84937975 -46.91796875 36.65625 C-46.91176514 37.54376953 -46.90556152 38.43128906 -46.89916992 39.34570312 C-46.89119385 40.01537109 -46.88321777 40.68503906 -46.875 41.375 C-42.75013162 41.46176908 -38.62549616 41.51531295 -34.5 41.5625 C-33.324375 41.58763672 -32.14875 41.61277344 -30.9375 41.63867188 C-29.81601563 41.64833984 -28.69453125 41.65800781 -27.5390625 41.66796875 C-26.50217285 41.6836792 -25.4652832 41.69938965 -24.39697266 41.71557617 C-23.56472168 41.60318604 -22.7324707 41.4907959 -21.875 41.375 C-19.28258938 37.48638407 -19.54427723 34.1958145 -19.5625 29.6875 C-19.54638672 28.90955078 -19.53027344 28.13160156 -19.51367188 27.33007812 C-19.50897221 21.69517947 -20.48988261 17.49796341 -22.875 12.375 C-28.76196044 7.3648209 -33.98673769 7.23927345 -39.875 12.375 Z " fill="#1E4238" transform="translate(1303.875,1257.625)"/>
<path d="M0 0 C1.9375 1.625 1.9375 1.625 2.9375 3.625 C3.03910797 5.60278208 3.07535254 7.584029 3.08226013 9.56440735 C3.08915863 10.83046814 3.09605713 12.09652893 3.10316467 13.4009552 C3.10587949 14.81198106 3.10851663 16.22300707 3.11108398 17.6340332 C3.1173875 19.11388342 3.12415307 20.59373173 3.13134766 22.07357788 C3.14603254 25.26512062 3.15775127 28.45665596 3.16729546 31.64821815 C3.18272863 36.69472834 3.20667807 41.74117546 3.23219299 46.78764343 C3.30344555 61.13955705 3.36316945 75.49150696 3.41430664 89.84350586 C3.44261176 97.76635397 3.47799493 105.68913949 3.52096039 113.61192197 C3.54773504 118.62827081 3.56563902 123.64454882 3.57699764 128.66095507 C3.58612684 131.78382562 3.60349042 134.90661022 3.62317657 138.02943039 C3.630647 139.47700715 3.63473283 140.92460595 3.63517189 142.37220192 C3.63625592 144.34970784 3.65067801 146.327193 3.66575623 148.30464172 C3.66998816 149.41096105 3.6742201 150.51728037 3.67858028 151.65712452 C3.94777108 154.74273264 4.50046829 156.88727707 5.9375 159.625 C9.38200737 161.92133824 11.87562283 162.16516485 15.9375 162.625 C15.67975629 164.04410652 15.40566835 165.46024899 15.125 166.875 C14.97417969 167.66390625 14.82335938 168.4528125 14.66796875 169.265625 C13.81870787 172.00869221 12.90387416 173.52879317 10.9375 175.625 C8.62953186 176.14639282 8.62953186 176.14639282 5.88696289 176.17431641 C4.85902115 176.19338043 3.83107941 176.21244446 2.77198792 176.23208618 C1.66258347 176.23026337 0.55317902 176.22844055 -0.58984375 176.2265625 C-2.30053795 176.23941788 -2.30053795 176.23941788 -4.04579163 176.25253296 C-6.45913028 176.26402569 -8.87253822 176.26501549 -11.28588867 176.25634766 C-14.9828082 176.25002938 -18.6765238 176.29692111 -22.37304688 176.34765625 C-24.71614178 176.35220239 -27.05924532 176.35360915 -29.40234375 176.3515625 C-30.50972397 176.36998199 -31.61710419 176.38840149 -32.75804138 176.40737915 C-35.64996192 176.37243924 -38.24600884 176.28183662 -41.0625 175.625 C-44.88738438 171.62706441 -45.62686415 168.07044818 -46.0625 162.625 C-44.1753125 162.2228125 -44.1753125 162.2228125 -42.25 161.8125 C-39.07289023 161.01541592 -36.97639413 160.43955019 -35.0625 157.625 C-34.06066469 154.61949406 -33.93213373 152.61731226 -33.92205811 149.47647095 C-33.91634796 148.41097519 -33.91063782 147.34547943 -33.90475464 146.24769592 C-33.90307785 144.49434181 -33.90307785 144.49434181 -33.90136719 142.70556641 C-33.89391983 140.85890129 -33.89391983 140.85890129 -33.88632202 138.97492981 C-33.87421263 135.59676444 -33.86675517 132.21866098 -33.86231136 128.84048128 C-33.85937927 126.72963348 -33.85527422 124.61879109 -33.85080719 122.50794601 C-33.83713552 115.90262427 -33.827467 109.29731492 -33.8236053 102.69198 C-33.81912387 95.06871375 -33.80157083 87.44562674 -33.7726047 79.82241499 C-33.7509871 73.92847852 -33.740901 68.03459247 -33.73956418 62.14061677 C-33.73851629 58.62095331 -33.73261196 55.10145841 -33.71474457 51.5818367 C-33.69520022 47.65557318 -33.69955319 43.72953369 -33.70605469 39.80322266 C-33.6968399 38.63836838 -33.68762512 37.4735141 -33.6781311 36.27336121 C-33.68648483 34.6666581 -33.68648483 34.6666581 -33.69500732 33.02749634 C-33.69354076 32.09946009 -33.6920742 31.17142384 -33.6905632 30.21526527 C-34.14221989 27.06980983 -35.21201691 25.1879356 -37.0625 22.625 C-40.85148025 20.52001097 -44.79471073 20.12709286 -49.0625 19.625 C-49.0625 16.325 -49.0625 13.025 -49.0625 9.625 C-43.01848174 6.36617846 -37.11035706 4.25405065 -30.5 2.4375 C-29.59314453 2.17775391 -28.68628906 1.91800781 -27.75195312 1.65039062 C-8.41244077 -3.77701422 -8.41244077 -3.77701422 0 0 Z " fill="#1E4238" transform="translate(1445.0625,1197.375)"/>
<path d="M0 0 C1.9375 1.625 1.9375 1.625 2.9375 3.625 C3.03910797 5.60278208 3.07535254 7.584029 3.08226013 9.56440735 C3.08915863 10.83046814 3.09605713 12.09652893 3.10316467 13.4009552 C3.10587949 14.81198106 3.10851663 16.22300707 3.11108398 17.6340332 C3.1173875 19.11388342 3.12415307 20.59373173 3.13134766 22.07357788 C3.14603254 25.26512062 3.15775127 28.45665596 3.16729546 31.64821815 C3.18272863 36.69472834 3.20667807 41.74117546 3.23219299 46.78764343 C3.30344555 61.13955705 3.36316945 75.49150696 3.41430664 89.84350586 C3.44261176 97.76635397 3.47799493 105.68913949 3.52096039 113.61192197 C3.54773504 118.62827081 3.56563902 123.64454882 3.57699764 128.66095507 C3.58612684 131.78382562 3.60349042 134.90661022 3.62317657 138.02943039 C3.630647 139.47700715 3.63473283 140.92460595 3.63517189 142.37220192 C3.63625592 144.34970784 3.65067801 146.327193 3.66575623 148.30464172 C3.66998816 149.41096105 3.6742201 150.51728037 3.67858028 151.65712452 C3.94777108 154.74273264 4.50046829 156.88727707 5.9375 159.625 C9.38200737 161.92133824 11.87562283 162.16516485 15.9375 162.625 C15.67975629 164.04410652 15.40566835 165.46024899 15.125 166.875 C14.97417969 167.66390625 14.82335938 168.4528125 14.66796875 169.265625 C13.81870787 172.00869221 12.90387416 173.52879317 10.9375 175.625 C8.62953186 176.14639282 8.62953186 176.14639282 5.88696289 176.17431641 C4.85902115 176.19338043 3.83107941 176.21244446 2.77198792 176.23208618 C1.66258347 176.23026337 0.55317902 176.22844055 -0.58984375 176.2265625 C-2.30053795 176.23941788 -2.30053795 176.23941788 -4.04579163 176.25253296 C-6.45913028 176.26402569 -8.87253822 176.26501549 -11.28588867 176.25634766 C-14.9828082 176.25002938 -18.6765238 176.29692111 -22.37304688 176.34765625 C-24.71614178 176.35220239 -27.05924532 176.35360915 -29.40234375 176.3515625 C-30.50972397 176.36998199 -31.61710419 176.38840149 -32.75804138 176.40737915 C-35.64996192 176.37243924 -38.24600884 176.28183662 -41.0625 175.625 C-44.88738438 171.62706441 -45.62686415 168.07044818 -46.0625 162.625 C-44.1753125 162.2228125 -44.1753125 162.2228125 -42.25 161.8125 C-39.07289023 161.01541592 -36.97639413 160.43955019 -35.0625 157.625 C-34.06066469 154.61949406 -33.93213373 152.61731226 -33.92205811 149.47647095 C-33.91634796 148.41097519 -33.91063782 147.34547943 -33.90475464 146.24769592 C-33.90307785 144.49434181 -33.90307785 144.49434181 -33.90136719 142.70556641 C-33.89391983 140.85890129 -33.89391983 140.85890129 -33.88632202 138.97492981 C-33.87421263 135.59676444 -33.86675517 132.21866098 -33.86231136 128.84048128 C-33.85937927 126.72963348 -33.85527422 124.61879109 -33.85080719 122.50794601 C-33.83713552 115.90262427 -33.827467 109.29731492 -33.8236053 102.69198 C-33.81912387 95.06871375 -33.80157083 87.44562674 -33.7726047 79.82241499 C-33.7509871 73.92847852 -33.740901 68.03459247 -33.73956418 62.14061677 C-33.73851629 58.62095331 -33.73261196 55.10145841 -33.71474457 51.5818367 C-33.69520022 47.65557318 -33.69955319 43.72953369 -33.70605469 39.80322266 C-33.6968399 38.63836838 -33.68762512 37.4735141 -33.6781311 36.27336121 C-33.68648483 34.6666581 -33.68648483 34.6666581 -33.69500732 33.02749634 C-33.69354076 32.09946009 -33.6920742 31.17142384 -33.6905632 30.21526527 C-34.14221989 27.06980983 -35.21201691 25.1879356 -37.0625 22.625 C-40.85148025 20.52001097 -44.79471073 20.12709286 -49.0625 19.625 C-49.0625 16.325 -49.0625 13.025 -49.0625 9.625 C-43.01848174 6.36617846 -37.11035706 4.25405065 -30.5 2.4375 C-29.59314453 2.17775391 -28.68628906 1.91800781 -27.75195312 1.65039062 C-8.41244077 -3.77701422 -8.41244077 -3.77701422 0 0 Z " fill="#1E4238" transform="translate(1015.0625,1197.375)"/>
<path d="M0 0 C1.9375 1.625 1.9375 1.625 2.9375 3.625 C3.03901897 5.57296049 3.07534795 7.52442956 3.08226013 9.47502136 C3.08915863 10.72136353 3.09605713 11.96770569 3.10316467 13.2518158 C3.10587951 14.64077744 3.10851666 16.02973924 3.11108398 17.41870117 C3.11738767 18.8756022 3.12415326 20.33250129 3.13134766 21.78939819 C3.14603331 24.93182664 3.15775187 28.07424757 3.16729546 31.21669579 C3.18273439 36.18814465 3.20668502 41.15952959 3.23219299 46.13093567 C3.30342644 60.26962239 3.3631173 74.40834616 3.41430664 88.54711914 C3.44263986 96.35205954 3.47804016 104.15693677 3.52096039 111.96181089 C3.54769315 116.900665 3.5656231 121.83944762 3.57699764 126.77835977 C3.58614667 129.85762492 3.60351987 132.93680361 3.62317657 136.01601791 C3.63062799 137.44017866 3.63473168 138.86436162 3.63517189 140.28854179 C3.5135366 150.16679713 3.5135366 150.16679713 5.9375 159.625 C8.86202693 161.92284259 12.31022781 162.13037197 15.9375 162.625 C15.50177675 168.07154064 14.75777187 171.62234635 10.9375 175.625 C7.07602027 176.55078253 3.26769483 176.46537753 -0.6875 176.421875 C-1.82654785 176.42761536 -2.9655957 176.43335571 -4.13916016 176.43927002 C-6.54656971 176.44335163 -8.95404557 176.43228903 -11.36132812 176.40722656 C-15.04968335 176.3751116 -18.73365634 176.40691407 -22.421875 176.4453125 C-24.76042636 176.44134763 -27.09897498 176.43366025 -29.4375 176.421875 C-30.54174316 176.43402039 -31.64598633 176.44616577 -32.78369141 176.4586792 C-40.39271493 176.3186715 -40.39271493 176.3186715 -43.7734375 172.81738281 C-45.2380226 169.19031562 -45.37266989 166.50212361 -45.0625 162.625 C-44.43601562 162.45484375 -43.80953125 162.2846875 -43.1640625 162.109375 C-42.34679688 161.86703125 -41.52953125 161.6246875 -40.6875 161.375 C-39.87539062 161.14296875 -39.06328125 160.9109375 -38.2265625 160.671875 C-35.49052554 159.34830477 -35.15081713 158.42600263 -34.0625 155.625 C-33.75792475 153.07701659 -33.75792475 153.07701659 -33.79507446 150.2802887 C-33.78227951 148.6547406 -33.78227951 148.6547406 -33.76922607 146.99635315 C-33.77013245 145.81234421 -33.77103882 144.62833527 -33.77197266 143.40844727 C-33.76525543 142.15768402 -33.75853821 140.90692078 -33.75161743 139.61825562 C-33.73587244 136.19050586 -33.72926234 132.76299839 -33.72798586 129.33522916 C-33.72656359 127.19304381 -33.7222926 125.05088381 -33.71699142 122.90870476 C-33.69849408 115.43350488 -33.69032058 107.9583763 -33.69189453 100.4831543 C-33.6930964 93.51776845 -33.67198466 86.55269224 -33.6404072 79.58738476 C-33.61425007 73.60424581 -33.60352697 67.62120804 -33.60480535 61.63801235 C-33.60531509 58.06578522 -33.59962582 54.4938334 -33.57844925 50.92166328 C-33.5554771 46.93796828 -33.5645844 42.95469775 -33.57666016 38.97094727 C-33.56542114 37.78896255 -33.55418213 36.60697784 -33.54260254 35.38917542 C-33.5493187 29.1055223 -33.5493187 29.1055223 -35.93173218 23.41123962 C-38.43155922 21.31561472 -40.10145487 20.77725653 -43.3125 20.3125 C-44.88 20.085625 -46.4475 19.85875 -48.0625 19.625 C-48.0625 16.325 -48.0625 13.025 -48.0625 9.625 C-36.28608268 2.86803924 -13.34239708 -5.99046399 0 0 Z " fill="#1E4238" transform="translate(1373.0625,1197.375)"/>
<path d="M0 0 C1.9375 1.625 1.9375 1.625 2.9375 3.625 C3.03901897 5.57296049 3.07534795 7.52442956 3.08226013 9.47502136 C3.08915863 10.72136353 3.09605713 11.96770569 3.10316467 13.2518158 C3.10587951 14.64077744 3.10851666 16.02973924 3.11108398 17.41870117 C3.11738767 18.8756022 3.12415326 20.33250129 3.13134766 21.78939819 C3.14603331 24.93182664 3.15775187 28.07424757 3.16729546 31.21669579 C3.18273439 36.18814465 3.20668502 41.15952959 3.23219299 46.13093567 C3.30342644 60.26962239 3.3631173 74.40834616 3.41430664 88.54711914 C3.44263986 96.35205954 3.47804016 104.15693677 3.52096039 111.96181089 C3.54769315 116.900665 3.5656231 121.83944762 3.57699764 126.77835977 C3.58614667 129.85762492 3.60351987 132.93680361 3.62317657 136.01601791 C3.63062799 137.44017866 3.63473168 138.86436162 3.63517189 140.28854179 C3.5135366 150.16679713 3.5135366 150.16679713 5.9375 159.625 C8.86202693 161.92284259 12.31022781 162.13037197 15.9375 162.625 C15.50177675 168.07154064 14.75777187 171.62234635 10.9375 175.625 C7.07602027 176.55078253 3.26769483 176.46537753 -0.6875 176.421875 C-1.82654785 176.42761536 -2.9655957 176.43335571 -4.13916016 176.43927002 C-6.54656971 176.44335163 -8.95404557 176.43228903 -11.36132812 176.40722656 C-15.04968335 176.3751116 -18.73365634 176.40691407 -22.421875 176.4453125 C-24.76042636 176.44134763 -27.09897498 176.43366025 -29.4375 176.421875 C-30.54174316 176.43402039 -31.64598633 176.44616577 -32.78369141 176.4586792 C-40.39271493 176.3186715 -40.39271493 176.3186715 -43.7734375 172.81738281 C-45.2380226 169.19031562 -45.37266989 166.50212361 -45.0625 162.625 C-44.43601562 162.45484375 -43.80953125 162.2846875 -43.1640625 162.109375 C-42.34679687 161.86703125 -41.52953125 161.6246875 -40.6875 161.375 C-39.87539063 161.14296875 -39.06328125 160.9109375 -38.2265625 160.671875 C-35.49052554 159.34830477 -35.15081713 158.42600263 -34.0625 155.625 C-33.75792475 153.07701659 -33.75792475 153.07701659 -33.79507446 150.2802887 C-33.78227951 148.6547406 -33.78227951 148.6547406 -33.76922607 146.99635315 C-33.77013245 145.81234421 -33.77103882 144.62833527 -33.77197266 143.40844727 C-33.76525543 142.15768402 -33.75853821 140.90692078 -33.75161743 139.61825562 C-33.73587244 136.19050586 -33.72926234 132.76299839 -33.72798586 129.33522916 C-33.72656359 127.19304381 -33.7222926 125.05088381 -33.71699142 122.90870476 C-33.69849408 115.43350488 -33.69032058 107.9583763 -33.69189453 100.4831543 C-33.6930964 93.51776845 -33.67198466 86.55269224 -33.6404072 79.58738476 C-33.61425007 73.60424581 -33.60352697 67.62120804 -33.60480535 61.63801235 C-33.60531509 58.06578522 -33.59962582 54.4938334 -33.57844925 50.92166328 C-33.5554771 46.93796828 -33.5645844 42.95469775 -33.57666016 38.97094727 C-33.56542114 37.78896255 -33.55418213 36.60697784 -33.54260254 35.38917542 C-33.5493187 29.1055223 -33.5493187 29.1055223 -35.93173218 23.41123962 C-38.43155922 21.31561472 -40.10145487 20.77725653 -43.3125 20.3125 C-44.88 20.085625 -46.4475 19.85875 -48.0625 19.625 C-48.0625 16.325 -48.0625 13.025 -48.0625 9.625 C-36.28608268 2.86803924 -13.34239708 -5.99046399 0 0 Z " fill="#1E4238" transform="translate(943.0625,1197.375)"/>
<path d="M0 0 C5.11683168 1.63496397 9.04302132 4.72405454 13.3125 7.875 C14.10648193 8.45580322 14.90046387 9.03660645 15.71850586 9.63500977 C18.14998962 11.41754941 20.57519858 13.2083856 23 15 C23.70189453 15.51449707 24.40378906 16.02899414 25.12695312 16.55908203 C35.07977574 23.85476165 44.65457079 31.54210407 54.12988281 39.44580078 C56.6326996 41.52581797 59.15976203 43.57538255 61.6875 45.625 C71.73806078 53.85095065 81.50033665 62.35531828 90.99609375 71.21484375 C93.56207692 73.60625925 96.17895129 75.93300472 98.8125 78.25 C104.1291932 83.00108754 109.1228251 88.06724972 114.11645508 93.15332031 C117.29257644 96.37111264 120.4988593 99.48271568 123.92578125 102.43359375 C128.51769734 106.3919105 132.78819649 110.64144431 137.0625 114.9375 C137.82626953 115.69740234 138.59003906 116.45730469 139.37695312 117.24023438 C143.5374955 121.40789487 147.50757183 125.66918463 151.34936523 130.13110352 C153.93348814 133.05692231 156.70942089 135.77294832 159.5 138.5 C163.49468359 142.45016673 167.35842198 146.42596072 170.99609375 150.7109375 C173.9178379 154.04844642 176.96426248 157.26631382 180 160.5 C184.1998741 164.9792461 188.36695736 169.46856069 192.37109375 174.125 C194.33665089 176.38751181 196.35673309 178.59690683 198.375 180.8125 C202.32687937 185.18635971 206.05275365 189.70972122 209.7578125 194.29296875 C211.89483782 196.87303591 214.10735745 199.34714485 216.375 201.8125 C220.37143489 206.19613274 224.00672305 210.78429566 227.63012695 215.47363281 C231.12973826 219.97045495 234.80004691 224.2842045 238.5625 228.5625 C243.43681792 234.11572804 248.02660881 239.80611632 252.48046875 245.69921875 C255.20526757 249.29664438 258.03946914 252.80216842 260.875 256.3125 C265.49917323 262.05374463 269.96424148 267.89562419 274.36108398 273.81225586 C278.14518294 278.89341057 282.02653572 283.89109249 285.9375 288.875 C292.3073867 297.01463971 298.38713965 305.33823031 304.39111328 313.75 C307.07990783 317.51023226 309.79122919 321.25414764 312.5 325 C313.58077663 326.49736157 314.66150578 327.99475742 315.7421875 329.4921875 C317.9299232 332.52186598 320.12316153 335.54745594 322.3203125 338.5703125 C328.86734137 347.58695324 335.28649423 356.67549677 341.55810547 365.88574219 C343.10830804 368.15881267 344.66491412 370.42740282 346.22265625 372.6953125 C356.22870724 387.26998138 366.01988427 401.96454515 375.59570312 416.82519531 C377.48345547 419.7487172 379.38196589 422.66518565 381.28076172 425.58154297 C382.67206261 427.7262036 384.05143115 429.87819008 385.4296875 432.03125 C386.99355395 434.46934914 388.59303984 436.84544088 390.2578125 439.21875 C396.68785061 448.70488987 399.28357146 458.96685622 402 470 C398.29812045 468.17269352 394.70891309 466.17186331 391.125 464.125 C390.52558594 463.78597656 389.92617187 463.44695312 389.30859375 463.09765625 C388.10562521 462.411364 386.90909496 461.71366449 385.71923828 461.00488281 C384.15627641 460.09134247 382.54843332 459.25570178 380.9375 458.4296875 C376.49445345 454.75472081 374.45194773 450.08962056 371.875 445 C370.73152271 442.81578933 369.5843237 440.6335234 368.43359375 438.453125 C367.8597998 437.36322266 367.28600586 436.27332031 366.69482422 435.15039062 C364.2460711 430.59857412 361.62168148 426.16605436 358.9375 421.75 C358.44540039 420.94030762 357.95330078 420.13061523 357.44628906 419.29638672 C356.45707581 417.67245533 355.46668685 416.04923951 354.47509766 414.42675781 C352.99302791 411.98852986 351.53056707 409.53960482 350.07421875 407.0859375 C343.14746582 395.42291376 335.96317702 383.94183294 328.62695312 372.53222656 C327.16810708 370.26164566 325.71574822 367.98709387 324.265625 365.7109375 C312.38078149 347.12153591 299.84338264 328.9384565 287 311 C286.49581543 310.29391602 285.99163086 309.58783203 285.47216797 308.86035156 C276.83003418 296.76942846 267.96568917 284.85249686 259 273 C258.43249023 272.24799316 257.86498047 271.49598633 257.28027344 270.72119141 C249.85001835 260.88472041 242.21115768 251.24664558 234.39697266 241.71289062 C232.53485769 239.42966821 230.7041277 237.12219282 228.875 234.8125 C225.38013861 230.42736866 221.76584807 226.15124598 218.13183594 221.8815918 C215.25350579 218.49593365 212.42183119 215.07870163 209.625 211.625 C204.9803057 205.92055371 200.1602626 200.37731411 195.328125 194.83203125 C192.67083118 191.78046416 190.04230834 188.7058739 187.42285156 185.62182617 C181.59691826 178.77032177 175.57956522 172.12715069 169.44384766 165.55273438 C167.15499402 163.09126851 164.89143529 160.60712825 162.625 158.125 C157.39368372 152.40795246 152.11274707 146.73793922 146.81518555 141.08227539 C144.4738551 138.5806806 142.14038328 136.07234715 139.81713867 133.55395508 C129.50900655 122.41755247 118.8224641 111.6674361 108.08178711 100.95141602 C105.54493529 98.42032276 103.01268777 95.8846775 100.48168278 93.34773922 C98.4973356 91.35975682 96.51058657 89.37418846 94.52313042 87.38931465 C93.14160668 86.00876324 91.7620621 84.62623216 90.38258362 83.24363708 C85.92048338 78.79804703 81.40377339 74.48746806 76.61473083 70.39454651 C74.64094753 68.68990784 72.81098981 66.87566802 71 65 C68.55336563 62.52036671 66.07892226 60.14559624 63.4375 57.875 C59.3964529 54.3998589 55.51207456 50.7699747 51.625 47.125 C46.56988229 42.38784944 41.48866616 37.68821104 36.3203125 33.07421875 C34.72437798 31.64755001 33.13623875 30.21212832 31.5546875 28.76953125 C27.3576748 24.94748677 23.1111827 21.24567956 18.6875 17.6875 C14.25600008 14.10039763 10.00624453 10.35902445 5.8125 6.5 C5.2352417 5.97108154 4.6579834 5.44216309 4.06323242 4.8972168 C2.68778013 3.62044416 1.34081347 2.31310191 0 1 C0 0.67 0 0.34 0 0 Z " fill="#1E4238" transform="translate(907,590)"/>
<path d="M0 0 C2.16109298 2.74393321 2.41549272 5.28964472 2.43382263 8.65306091 C2.44072113 9.46757721 2.44761963 10.28209351 2.45472717 11.12129211 C2.45734055 12.01124374 2.45995392 12.90119537 2.46264648 13.81811523 C2.4693335 14.75822449 2.47602051 15.69833374 2.48291016 16.66693115 C2.4969655 18.70982502 2.50885801 20.75273464 2.51885796 22.79565239 C2.53525525 26.02732446 2.55849197 29.2588796 2.58375549 32.49049377 C2.65457174 41.67923165 2.71470009 50.86801687 2.76586914 60.05688477 C2.79763642 65.67546144 2.83890463 71.29390315 2.88606453 76.91237068 C2.90209616 79.05538573 2.91441234 81.19843187 2.92297173 83.34148979 C2.93510725 86.33644211 2.95924932 89.33107626 2.98608398 92.32592773 C2.98667313 93.21385513 2.98726227 94.10178253 2.98786926 95.01661682 C3.00244675 96.242621 3.00244675 96.242621 3.01731873 97.49339294 C3.02155066 98.20112067 3.0257826 98.9088484 3.03014278 99.63802242 C3.33619023 102.00051498 4.06469075 103.60214127 5.2890625 105.63671875 C8.3891131 107.74032452 11.62197402 108.13666123 15.2890625 108.63671875 C15.5980092 112.49855253 15.45896013 115.20684618 14.02734375 118.82910156 C10.33077097 122.61927515 7.84958673 122.37929149 2.70532227 122.47039795 C1.55733154 122.45825256 0.40934082 122.44610718 -0.7734375 122.43359375 C-2.54859741 122.44220428 -2.54859741 122.44220428 -4.35961914 122.45098877 C-6.86118484 122.45507091 -9.3628143 122.44400473 -11.86425781 122.41894531 C-15.69741297 122.38683206 -19.52635129 122.41863209 -23.359375 122.45703125 C-25.78907183 122.45306639 -28.21876602 122.44537904 -30.6484375 122.43359375 C-31.79642822 122.44573914 -32.94441895 122.45788452 -34.12719727 122.47039795 C-42.03442759 122.33035854 -42.03442759 122.33035854 -45.44921875 118.82910156 C-46.88083513 115.20684618 -47.0198842 112.49855253 -46.7109375 108.63671875 C-45.4528125 108.38921875 -44.1946875 108.14171875 -42.8984375 107.88671875 C-40.06915038 107.1768976 -38.90935251 106.82873328 -36.7734375 104.76171875 C-34.65278572 100.52041519 -34.57671546 96.67257551 -34.54980469 91.9597168 C-34.54483978 91.29738037 -34.53987488 90.63504395 -34.53475952 89.95263672 C-34.52019045 87.76789295 -34.5133445 85.58322181 -34.5078125 83.3984375 C-34.50205645 81.87392679 -34.49629878 80.34941609 -34.49053955 78.8249054 C-34.48004432 75.6297675 -34.47419209 72.43465465 -34.47070312 69.23950195 C-34.46522334 65.15746771 -34.44120034 61.07576784 -34.41273117 56.99383831 C-34.39405099 53.84443717 -34.38889633 50.69511569 -34.38736725 47.54566383 C-34.38435201 46.0414529 -34.37636181 44.53724299 -34.36318207 43.03308678 C-34.34600901 40.92243833 -34.34802861 38.81259543 -34.35449219 36.7019043 C-34.34902374 34.90465157 -34.34902374 34.90465157 -34.34344482 33.0710907 C-34.78581171 28.93698814 -35.7838315 26.31456216 -37.7109375 22.63671875 C-40.37261067 21.16954654 -40.37261067 21.16954654 -43.3984375 20.69921875 C-46.028125 20.17328125 -46.028125 20.17328125 -48.7109375 19.63671875 C-48.7109375 16.00671875 -48.7109375 12.37671875 -48.7109375 8.63671875 C-38.05388195 2.64212501 -11.08881676 -8.8356097 0 0 Z " fill="#1E4238" transform="translate(872.7109375,1251.36328125)"/>
<path d="M0 0 C1.0333548 0.00060425 2.06670959 0.0012085 3.13137817 0.00183105 C19.54716072 0.02779963 35.78801059 0.45084387 52.125 2.1875 C53.32882324 2.31108887 54.53264648 2.43467773 55.77294922 2.56201172 C117.20833754 9.04585403 178.84050115 24.42913749 235.125 50.1875 C231.02050708 51.55566431 228.39274225 50.06077523 224.53125 48.57421875 C222.94532114 47.98399563 221.3592127 47.39425486 219.77294922 46.80493164 C218.93471619 46.4900882 218.09648315 46.17524475 217.23284912 45.8508606 C198.43425608 38.81640218 179.49436508 32.82853455 160.09277344 27.70776367 C158.21160653 27.21039808 156.33231528 26.70595437 154.453125 26.20117188 C125.87467938 18.59612996 96.59209614 13.79071416 67.1875 10.8125 C66.40159485 10.73287018 65.6156897 10.65324036 64.80596924 10.57119751 C59.58331304 10.05207102 54.35770036 9.59282874 49.125 9.1875 C48.4379599 9.13415497 47.7509198 9.08080994 47.0430603 9.02584839 C32.48453637 7.947256 17.90345738 7.9871827 3.3125 8 C2.04332733 8.00060425 0.77415466 8.0012085 -0.53347778 8.00183105 C-18.74124622 8.02538369 -36.75594803 8.2659406 -54.875 10.1875 C-56.16599609 10.31640625 -57.45699219 10.4453125 -58.78710938 10.578125 C-101.94877338 14.91433121 -145.9646662 22.47879053 -186.75390625 37.60839844 C-187.70982666 37.96168716 -187.70982666 37.96168716 -188.68505859 38.32211304 C-190.46427847 38.98674652 -192.23817698 39.66557476 -194.01171875 40.34521484 C-196.875 41.1875 -196.875 41.1875 -199.875 40.1875 C-137.85490164 11.11805415 -68.0899226 -0.074016 0 0 Z " fill="#B1856C" transform="translate(996.875,970.8125)"/>
<path d="M0 0 C2.41696872 -0.05411124 4.83271787 -0.09372278 7.25 -0.125 C7.93191406 -0.14175781 8.61382813 -0.15851563 9.31640625 -0.17578125 C13.12365355 -0.21274482 15.81414497 -0.12458079 19 2 C20.24853516 4.07543945 20.24853516 4.07543945 21.2890625 6.61328125 C21.67320312 7.53173828 22.05734375 8.45019531 22.453125 9.39648438 C22.83984375 10.35876953 23.2265625 11.32105469 23.625 12.3125 C24.01945313 13.26318359 24.41390625 14.21386719 24.8203125 15.19335938 C26.58074432 19.44872751 28.29168792 23.72349041 30 28 C30.19110352 27.43603516 30.38220703 26.87207031 30.57910156 26.29101562 C31.46354176 23.69197476 32.35670947 21.09601166 33.25 18.5 C33.55035156 17.613125 33.85070312 16.72625 34.16015625 15.8125 C36.06817878 10.29141354 38.27184239 5.16659937 41 0 C46.61 0 52.22 0 58 0 C58.495 2.475 58.495 2.475 59 5 C57.68 5.33 56.36 5.66 55 6 C54.9753174 10.94791294 54.95714834 15.8957902 54.94506836 20.84375 C54.94003347 22.52767562 54.93320519 24.21159686 54.92456055 25.89550781 C54.91245804 28.31316203 54.90676332 30.73075856 54.90234375 33.1484375 C54.89718246 33.9036972 54.89202118 34.65895691 54.88670349 35.43710327 C54.80679812 39.34648109 54.80679812 39.34648109 56 43 C56.99 43.33 57.98 43.66 59 44 C58.67 45.65 58.34 47.3 58 49 C51.73 49 45.46 49 39 49 C38.67 47.35 38.34 45.7 38 44 C39.32 43.34 40.64 42.68 42 42 C42 34.08 42 26.16 42 18 C41.28714844 19.93746094 40.57429687 21.87492187 39.83984375 23.87109375 C39.12356665 25.74175918 38.40708334 27.61235273 37.68481445 29.48071289 C37.18878107 30.77953927 36.7029822 32.08232312 36.2277832 33.38891602 C35.54229691 35.26810627 34.81651889 37.13244391 34.08984375 38.99609375 C33.66566162 40.12200928 33.24147949 41.2479248 32.80444336 42.40795898 C31 45 31 45 27.30688477 45.87524414 C26.21561279 45.91641357 25.12434082 45.95758301 24 46 C19.61897884 36.78742714 15.72636668 27.49336273 12 18 C12 25.92 12 33.84 12 42 C13.65 42.66 15.3 43.32 17 44 C16.67 45.65 16.34 47.3 16 49 C10.39 49 4.78 49 -1 49 C-1.33 47.35 -1.66 45.7 -2 44 C-0.02 43.505 -0.02 43.505 2 43 C2 31.12 2 19.24 2 7 C0.68 6.34 -0.64 5.68 -2 5 C-1.34 3.35 -0.68 1.7 0 0 Z " fill="#B1856C" transform="translate(858,1430)"/>
<path d="M0 0 C2.41696872 -0.05411124 4.83271787 -0.09372278 7.25 -0.125 C7.93191406 -0.14175781 8.61382813 -0.15851563 9.31640625 -0.17578125 C13.12365355 -0.21274482 15.81414497 -0.12458079 19 2 C20.24853516 4.07543945 20.24853516 4.07543945 21.2890625 6.61328125 C21.67320312 7.53173828 22.05734375 8.45019531 22.453125 9.39648438 C22.83984375 10.35876953 23.2265625 11.32105469 23.625 12.3125 C24.01945313 13.26318359 24.41390625 14.21386719 24.8203125 15.19335938 C26.58074432 19.44872751 28.29168792 23.72349041 30 28 C30.19110352 27.43603516 30.38220703 26.87207031 30.57910156 26.29101562 C31.46354176 23.69197476 32.35670947 21.09601166 33.25 18.5 C33.55035156 17.613125 33.85070312 16.72625 34.16015625 15.8125 C36.06817878 10.29141354 38.27184239 5.16659937 41 0 C46.61 0 52.22 0 58 0 C58.495 2.475 58.495 2.475 59 5 C57.68 5.33 56.36 5.66 55 6 C54.9753174 10.94791294 54.95714834 15.8957902 54.94506836 20.84375 C54.94003347 22.52767562 54.93320519 24.21159686 54.92456055 25.89550781 C54.91245804 28.31316203 54.90676332 30.73075856 54.90234375 33.1484375 C54.89718246 33.9036972 54.89202118 34.65895691 54.88670349 35.43710327 C54.80679812 39.34648109 54.80679812 39.34648109 56 43 C56.99 43.33 57.98 43.66 59 44 C58.67 45.65 58.34 47.3 58 49 C51.73 49 45.46 49 39 49 C38.67 47.35 38.34 45.7 38 44 C39.32 43.34 40.64 42.68 42 42 C42 34.08 42 26.16 42 18 C41.28714844 19.93746094 40.57429687 21.87492187 39.83984375 23.87109375 C39.12356665 25.74175918 38.40708334 27.61235273 37.68481445 29.48071289 C37.18878107 30.77953927 36.7029822 32.08232312 36.2277832 33.38891602 C35.54229691 35.26810627 34.81651889 37.13244391 34.08984375 38.99609375 C33.66566162 40.12200928 33.24147949 41.2479248 32.80444336 42.40795898 C31 45 31 45 27.30688477 45.87524414 C26.21561279 45.91641357 25.12434082 45.95758301 24 46 C19.61897884 36.78742714 15.72636668 27.49336273 12 18 C12 25.92 12 33.84 12 42 C13.65 42.66 15.3 43.32 17 44 C16.67 45.65 16.34 47.3 16 49 C10.39 49 4.78 49 -1 49 C-1.33 47.35 -1.66 45.7 -2 44 C-0.02 43.505 -0.02 43.505 2 43 C2 31.12 2 19.24 2 7 C0.68 6.34 -0.64 5.68 -2 5 C-1.34 3.35 -0.68 1.7 0 0 Z " fill="#B1856C" transform="translate(767,1430)"/>
<path d="M0 0 C4.89118151 3.11157752 8.00268177 7.64994686 9.75 13.11328125 C10.58771458 20.49398756 10.91409193 27.42091718 6.21484375 33.5 C5.73144531 34.03238281 5.24804688 34.56476563 4.75 35.11328125 C3.904375 36.06203125 3.05875 37.01078125 2.1875 37.98828125 C-2.91314828 41.85638213 -9.77642829 42.22307806 -15.96875 42.02734375 C-22.57084643 41.11038591 -27.02810796 38.23624857 -31.25 33.11328125 C-34.8261343 27.4059154 -35.19519978 20.65697204 -34.25 14.11328125 C-32.20462832 7.44688467 -29.24481225 3.30305215 -23.1171875 -0.046875 C-16.11014505 -3.19857819 -7.05244287 -3.10013634 0 0 Z " fill="#1E4238" transform="translate(869.25,1192.88671875)"/>
<path d="M0 0 C6.27 0 12.54 0 19 0 C19.33 1.65 19.66 3.3 20 5 C18.68 5.33 17.36 5.66 16 6 C16 10.95 16 15.9 16 21 C20.62 21 25.24 21 30 21 C29.8453125 17.596875 29.8453125 17.596875 29.6875 14.125 C29.62949219 12.84882812 29.57148437 11.57265625 29.51171875 10.2578125 C29.34285156 9.18273438 29.17398437 8.10765625 29 7 C28.01 6.34 27.02 5.68 26 5 C26.33 3.35 26.66 1.7 27 0 C33.27 0 39.54 0 46 0 C46.495 2.475 46.495 2.475 47 5 C45.68 5.33 44.36 5.66 43 6 C43.33 18.21 43.66 30.42 44 43 C44.99 43.33 45.98 43.66 47 44 C46.67 45.65 46.34 47.3 46 49 C39.73 49 33.46 49 27 49 C26.505 46.525 26.505 46.525 26 44 C27.485 43.505 27.485 43.505 29 43 C29.33 38.05 29.66 33.1 30 28 C25.38 28 20.76 28 16 28 C16.33 32.95 16.66 37.9 17 43 C18.485 43.495 18.485 43.495 20 44 C19.67 45.65 19.34 47.3 19 49 C12.73 49 6.46 49 0 49 C-0.33 47.35 -0.66 45.7 -1 44 C0.485 43.505 0.485 43.505 2 43 C2.33 30.79 2.66 18.58 3 6 C1.68 5.67 0.36 5.34 -1 5 C-0.67 3.35 -0.34 1.7 0 0 Z " fill="#B1856C" transform="translate(1232,1430)"/>
<path d="M0 0 C0.50833591 1.24663331 1.00631145 2.49749387 1.5 3.75 C1.7784375 4.44609375 2.056875 5.1421875 2.34375 5.859375 C3 8 3 8 3 12 C-0.08809695 13.76462683 -1.23312136 14 -5 14 C-5.28875 13.360625 -5.5775 12.72125 -5.875 12.0625 C-6.82823451 9.84793921 -6.82823451 9.84793921 -9 9 C-10.70363822 8.77377919 -12.41328701 8.59111527 -14.125 8.4375 C-15.73375 8.293125 -17.3425 8.14875 -19 8 C-19 12.62 -19 17.24 -19 22 C-15.04 21.505 -15.04 21.505 -11 21 C-10.67 19.68 -10.34 18.36 -10 17 C-8.00045254 16.95745644 -5.99958364 16.95919217 -4 17 C-3 18 -3 18 -2.90234375 21.16015625 C-2.91394531 22.44792969 -2.92554688 23.73570313 -2.9375 25.0625 C-2.94652344 26.35285156 -2.95554687 27.64320312 -2.96484375 28.97265625 C-2.97644531 29.97167969 -2.98804688 30.97070312 -3 32 C-6.465 32.495 -6.465 32.495 -10 33 C-10.185625 32.360625 -10.37125 31.72125 -10.5625 31.0625 C-11.036875 30.381875 -11.51125 29.70125 -12 29 C-14.31 28.67 -16.62 28.34 -19 28 C-19 32.95 -19 37.9 -19 43 C-12.565 42.505 -12.565 42.505 -6 42 C-5.34 40.02 -4.68 38.04 -4 36 C-3 35 -3 35 -1.15234375 34.90234375 C0.8984375 34.93489583 2.94921875 34.96744792 5 35 C4.22095672 46.52164009 4.22095672 46.52164009 2 52 C1.49694336 51.84152588 0.99388672 51.68305176 0.47558594 51.51977539 C-2.87476536 50.81633378 -6.19970003 50.7648616 -9.609375 50.68359375 C-10.33618469 50.66281265 -11.06299438 50.64203156 -11.81182861 50.62062073 C-14.12445991 50.55544488 -16.43720093 50.4963896 -18.75 50.4375 C-20.32162575 50.39428434 -21.89324056 50.35066908 -23.46484375 50.30664062 C-27.30978453 50.19979644 -31.15483524 50.09843976 -35 50 C-35.33 48.35 -35.66 46.7 -36 45 C-34.68 44.34 -33.36 43.68 -32 43 C-32 31.45 -32 19.9 -32 8 C-33.32 7.34 -34.64 6.68 -36 6 C-35.34 4.35 -34.68 2.7 -34 1 C-29.45839728 0.83156021 -24.91670855 0.66555982 -20.375 0.5 C-19.08980469 0.45230469 -17.80460937 0.40460938 -16.48046875 0.35546875 C-14.61455078 0.28779297 -14.61455078 0.28779297 -12.7109375 0.21875 C-11.56931152 0.17685547 -10.42768555 0.13496094 -9.25146484 0.09179688 C-6.16548737 0.00467212 -3.08699651 -0.01635495 0 0 Z " fill="#B1856C" transform="translate(1129,1429)"/>
<path d="M0 0 C0.50559908 1.43554025 1.0042749 2.8735202 1.5 4.3125 C1.7784375 5.11300781 2.056875 5.91351562 2.34375 6.73828125 C3 9 3 9 3 12 C-0.08809695 13.76462683 -1.23312136 14 -5 14 C-5.53625 13.195625 -6.0725 12.39125 -6.625 11.5625 C-10.28417676 7.61444086 -13.7330107 8.20790747 -19 8 C-19 12.62 -19 17.24 -19 22 C-13.59212615 20.90213575 -13.59212615 20.90213575 -10 17 C-7.4375 16.75 -7.4375 16.75 -5 17 C-4 18 -4 18 -3.8671875 21.125 C-3.86976563 22.40375 -3.87234375 23.6825 -3.875 25 C-3.87113281 26.918125 -3.87113281 26.918125 -3.8671875 28.875 C-4 32 -4 32 -5 33 C-6.66617115 33.04063832 -8.33388095 33.042721 -10 33 C-10.33 31.68 -10.66 30.36 -11 29 C-13.64 28.67 -16.28 28.34 -19 28 C-19 32.95 -19 37.9 -19 43 C-17.246875 42.9175 -15.49375 42.835 -13.6875 42.75 C-12.70136719 42.70359375 -11.71523438 42.6571875 -10.69921875 42.609375 C-7.90019411 42.23718168 -7.90019411 42.23718168 -6.20703125 40.140625 C-4.87065296 37.92946953 -4.87065296 37.92946953 -4 35 C-1.03 35 1.94 35 5 35 C4.54775239 40.91492272 3.8417395 46.35199888 2 52 C1.49694336 51.84152588 0.99388672 51.68305176 0.47558594 51.51977539 C-2.87476536 50.81633378 -6.19970003 50.7648616 -9.609375 50.68359375 C-10.33618469 50.66281265 -11.06299438 50.64203156 -11.81182861 50.62062073 C-14.12445991 50.55544488 -16.43720093 50.4963896 -18.75 50.4375 C-20.32162575 50.39428434 -21.89324056 50.35066908 -23.46484375 50.30664062 C-27.30978453 50.19979644 -31.15483524 50.09843976 -35 50 C-35.33 48.35 -35.66 46.7 -36 45 C-34.68 44.34 -33.36 43.68 -32 43 C-32 31.12 -32 19.24 -32 7 C-33.32 6.67 -34.64 6.34 -36 6 C-35.67 4.35 -35.34 2.7 -35 1 C-30.97986475 0.85623256 -26.95968251 0.71386511 -22.93945312 0.57275391 C-21.57387985 0.5246294 -20.20831964 0.47613278 -18.84277344 0.42724609 C-16.87178019 0.35675071 -14.90073413 0.28773663 -12.9296875 0.21875 C-11.74616699 0.17685547 -10.56264648 0.13496094 -9.34326172 0.09179688 C-6.2266617 0.00622351 -3.11755898 -0.01660484 0 0 Z " fill="#B1856C" transform="translate(731,1429)"/>
<path d="M0 0 C13.2 0 26.4 0 40 0 C41.45724917 5.82899667 42.24343428 9.31515443 42.125 15 C42.10695313 16.134375 42.08890625 17.26875 42.0703125 18.4375 C42.04710937 19.283125 42.02390625 20.12875 42 21 C39.69 21 37.38 21 35 21 C34.84144531 20.22914062 34.68289063 19.45828125 34.51953125 18.6640625 C34.16955078 17.15972656 34.16955078 17.15972656 33.8125 15.625 C33.59207031 14.62726563 33.37164063 13.62953125 33.14453125 12.6015625 C32.07839119 9.35438896 32.07839119 9.35438896 27 8 C27.33 19.55 27.66 31.1 28 43 C29.98 43.66 31.96 44.32 34 45 C33.67 46.65 33.34 48.3 33 50 C24.42 50 15.84 50 7 50 C6.67 48.35 6.34 46.7 6 45 C8.31 44.34 10.62 43.68 13 43 C13 31.45 13 19.9 13 8 C8.89479222 9.54538748 8.89479222 9.54538748 7.734375 12.6015625 C7.40953125 13.59929687 7.0846875 14.59703125 6.75 15.625 C6.41484375 16.62789062 6.0796875 17.63078125 5.734375 18.6640625 C5.49203125 19.43492188 5.2496875 20.20578125 5 21 C2.69 21 0.38 21 -2 21 C-2.0561088 19.56299124 -2.09369567 18.12526298 -2.125 16.6875 C-2.14820313 15.88699219 -2.17140625 15.08648438 -2.1953125 14.26171875 C-1.90780967 9.4604215 -0.86042061 4.73231334 0 0 Z " fill="#B1846C" transform="translate(1022,1429)"/>
<path d="M0 0 C6.93 0 13.86 0 21 0 C21.33 1.65 21.66 3.3 22 5 C20.68 5.33 19.36 5.66 18 6 C20.13259754 11.1182341 22.48550061 16.0577081 25 21 C27.31 16.38 29.62 11.76 32 7 C31.01 6.34 30.02 5.68 29 5 C29.33 3.35 29.66 1.7 30 0 C35.28 0 40.56 0 46 0 C46.495 2.475 46.495 2.475 47 5 C46.38125 5.061875 45.7625 5.12375 45.125 5.1875 C44.073125 5.5896875 44.073125 5.5896875 43 6 C42.31982395 7.6611992 41.65770463 9.32977641 41 11 C40.22346343 12.41741313 39.42705996 13.82402277 38.6171875 15.22265625 C31.32160643 27.7555563 31.32160643 27.7555563 31 42 C32.98 42.66 34.96 43.32 37 44 C36.67 45.65 36.34 47.3 36 49 C28.41 49 20.82 49 13 49 C12.67 47.35 12.34 45.7 12 44 C13.65 43.34 15.3 42.68 17 42 C18.06731 32.65989721 15.5523646 27.16310116 10.5 19.4375 C9.27818359 17.50062888 8.05927178 15.56192138 6.84375 13.62109375 C6.29912109 12.7798999 5.75449219 11.93870605 5.19335938 11.07202148 C4 9 4 9 4 7 C1.525 6.01 1.525 6.01 -1 5 C-0.67 3.35 -0.34 1.7 0 0 Z " fill="#B1856C" transform="translate(946,1430)"/>
<path d="M0 0 C4.07855483 0.43541329 7.53461003 0.47975702 11.5625 -0.5 C13.57417675 5.28357065 13.78334624 10.40218999 13.5625 16.5 C10.5925 16.5 7.6225 16.5 4.5625 16.5 C4.170625 15.38625 3.77875 14.2725 3.375 13.125 C2.18630445 10.35511509 1.78505348 9.63695599 -0.875 8 C-4.29876945 7.29451473 -4.29876945 7.29451473 -7.4375 8.5 C-9.42073456 13.14643525 -9.77343399 17.51324633 -9.75 22.5 C-9.76611328 23.18578125 -9.78222656 23.8715625 -9.79882812 24.578125 C-9.80335928 29.32677897 -8.7497076 32.40025459 -6.4375 36.5 C-6.4375 37.16 -6.4375 37.82 -6.4375 38.5 C-0.74476155 40.66866227 3.25361252 41.52617221 8.9375 39 C9.80375 38.505 10.67 38.01 11.5625 37.5 C13.5625 39.5 13.5625 39.5 13.625 42.875 C12.5625 46.5 12.5625 46.5 9.875 48.9375 C3.64728852 51.90981684 -4.4129368 51.61584463 -10.9453125 49.8046875 C-16.48205216 47.2994707 -19.9715701 43.4318598 -22.6875 38 C-25.4336443 28.84618567 -25.52679539 19.10095537 -21.4375 10.36328125 C-18.56664799 5.25429791 -15.78044987 2.88524548 -10.4375 0.5 C-6.7472439 -0.47558495 -3.77451464 -0.47114509 0 0 Z " fill="#B2856C" transform="translate(1187.4375,1429.5)"/>
<path d="M0 0 C0.99 0.33 1.98 0.66 3 1 C1.68 1.33 0.36 1.66 -1 2 C-0.67 1.34 -0.34 0.68 0 0 Z " fill="#B1826D" transform="translate(794,1012)"/>
<path d="M0 0 C2 1 2 1 2 1 Z " fill="#AC836D" transform="translate(1232,1059)"/>
<path d="" fill="#AF8070" transform="translate(0,0)"/>
<path d="" fill="#AD8570" transform="translate(0,0)"/>
<path d="" fill="#204035" transform="translate(0,0)"/>
</svg>
